<?xml version="1.0" encoding="UTF-8" standalone="no"?>
<svg
   xmlns:dc="http://purl.org/dc/elements/1.1/"
   xmlns:cc="http://creativecommons.org/ns#"
   xmlns:rdf="http://www.w3.org/1999/02/22-rdf-syntax-ns#"
   xmlns:svg="http://www.w3.org/2000/svg"
   xmlns="http://www.w3.org/2000/svg"
   id="svg5771"
   version="1.1"
   viewBox="0 0 48.106083 20.812126"
   height="20.812126mm"
   width="48.106083mm">
  <defs
     id="defs5765" />
  <metadata
     id="metadata5768">
    <rdf:RDF>
      <cc:Work
         rdf:about="">
        <dc:format>image/svg+xml</dc:format>
        <dc:type
           rdf:resource="http://purl.org/dc/dcmitype/StillImage" />
        <dc:title></dc:title>
      </cc:Work>
    </rdf:RDF>
  </metadata>
  <g
     transform="translate(-83.292198,-139.18322)"
     id="layer1">
    <text
       id="text5008"
       y="159.83641"
       x="85.379608"
       style="font-style:normal;font-weight:normal;font-size:10.59563732px;line-height:6.62227392px;font-family:sans-serif;letter-spacing:0px;word-spacing:0px;fill:#332222;fill-opacity:1;stroke:none;stroke-width:0.26489094px;stroke-linecap:butt;stroke-linejoin:miter;stroke-opacity:1"
       xml:space="preserve"><tspan
         style="font-style:normal;font-variant:normal;font-weight:500;font-stretch:normal;font-family:Gotham;-inkscape-font-specification:'Gotham Medium';fill:#332222;fill-opacity:1;stroke-width:0.26489094px"
         y="159.83641"
         x="85.379608"
         id="tspan5006">REMOTE</tspan></text>
    <g
       style="fill:#661111;fill-opacity:1"
       transform="matrix(0.16788217,-0.06765668,0.06765668,0.16788217,14.815072,-18.589579)"
       id="g5012">
      <path
         d="m 16.646313,974.98985 c -7.5321003,7.50356 -7.5247003,19.57784 0,27.08865 l 33.3329,33.2837 c 11.124,-11.0817 22.2479,-22.1635 33.3717,-33.2452 7.5321,-7.50357 7.5321,-19.58512 0,-27.08868 -7.532,-7.50356 -19.6595,-7.50367 -27.1916,0 l -6.1415,6.11805 -6.1798,-6.15652 c -7.5322,-7.50356 -19.659601,-7.50356 -27.1917,0 z"
         style="color:#000000;display:inline;overflow:visible;visibility:visible;fill:#661111;fill-opacity:1;stroke:none;enable-background:accumulate"
         marker="none"
         visibility="visible"
         display="inline"
         overflow="visible"
         id="path5010" />
    </g>
    <g
       transform="matrix(0.13556975,0,0,0.13556975,51.487695,117.94223)"
       id="g5190">
      <path
         id="path5153"
         style="font-style:normal;font-variant:normal;font-weight:500;font-stretch:normal;font-size:medium;line-height:25px;font-family:Gotham;-inkscape-font-specification:'Gotham Medium';letter-spacing:0px;word-spacing:0px;fill:#332222;fill-opacity:1;stroke:none;stroke-width:1px;stroke-linecap:butt;stroke-linejoin:miter;stroke-opacity:1"
         d="m 331.35,219.75 h 9.36 v 20 h 13.16 v 8 h -22.52 z" />
      <path
         id="path5155"
         style="font-style:normal;font-variant:normal;font-weight:500;font-stretch:normal;font-size:medium;line-height:25px;font-family:Gotham;-inkscape-font-specification:'Gotham Medium';letter-spacing:0px;word-spacing:0px;fill:#332222;fill-opacity:1;stroke:none;stroke-width:1px;stroke-linecap:butt;stroke-linejoin:miter;stroke-opacity:1"
         d="m 355.88125,219.75 h 23.88 v 7.68 h -14.68 v 2.84 h 13.68 v 6.76 h -13.68 v 3.04 h 14.88 v 7.68 h -24.08 z" />
      <path
         id="path5157"
         style="font-style:normal;font-variant:normal;font-weight:500;font-stretch:normal;font-size:medium;line-height:25px;font-family:Gotham;-inkscape-font-specification:'Gotham Medium';letter-spacing:0px;word-spacing:0px;fill:#332222;fill-opacity:1;stroke:none;stroke-width:1px;stroke-linecap:butt;stroke-linejoin:miter;stroke-opacity:1"
         d="m 389.60375,227.67 h -8.24 v -7.92 h 25.84 v 7.92 h -8.24 v 20.08 h -9.36 z" />
      <path
         id="path5159"
         style="font-style:normal;font-variant:normal;font-weight:500;font-stretch:normal;font-size:medium;line-height:25px;font-family:Gotham;-inkscape-font-specification:'Gotham Medium';letter-spacing:0px;word-spacing:0px;fill:#332222;fill-opacity:1;stroke:none;stroke-width:1px;stroke-linecap:butt;stroke-linejoin:miter;stroke-opacity:1"
         d="m 409.23875,219.75 h 9.76 v 0.2 l -5.76,15.76 h -5.08 z" />
      <path
         id="path5161"
         style="font-style:normal;font-variant:normal;font-weight:500;font-stretch:normal;font-size:medium;line-height:25px;font-family:Gotham;-inkscape-font-specification:'Gotham Medium';letter-spacing:0px;word-spacing:0px;fill:#332222;fill-opacity:1;stroke:none;stroke-width:1px;stroke-linecap:butt;stroke-linejoin:miter;stroke-opacity:1"
         d="m 432.60875,248.27 q -4.28,0 -8,-1.16 -3.68,-1.2 -6.36,-3.56 l 5,-5.96 q 2.28,1.76 4.8,2.52 2.52,0.76 5,0.76 1.28,0 1.84,-0.32 0.56,-0.32 0.56,-0.88 v -0.08 q 0,-0.6 -0.84,-1 -0.8,-0.4 -3.04,-0.84 -2.36,-0.48 -4.52,-1.12 -2.12,-0.64 -3.76,-1.64 -1.6,-1 -2.56,-2.48 -0.96,-1.52 -0.96,-3.76 v -0.08 q 0,-2 0.76,-3.72 0.8,-1.72 2.28,-3 1.52,-1.28 3.72,-2 2.24,-0.72 5.12,-0.72 4.08,0 7.12,0.96 3.08,0.96 5.52,2.88 l -4.56,6.32 q -2,-1.44 -4.24,-2.08 -2.2,-0.68 -4.16,-0.68 -1.04,0 -1.56,0.32 -0.48,0.32 -0.48,0.84 v 0.08 q 0,0.28 0.16,0.52 0.16,0.24 0.56,0.48 0.44,0.2 1.16,0.4 0.72,0.2 1.84,0.4 2.68,0.48 4.88,1.16 2.2,0.68 3.76,1.76 1.6,1.04 2.44,2.52 0.88,1.48 0.88,3.6 v 0.08 q 0,2.2 -0.88,3.96 -0.88,1.76 -2.48,3 -1.6,1.2 -3.92,1.88 -2.28,0.64 -5.08,0.64 z" />
      <path
         id="path5163"
         style="font-style:normal;font-variant:normal;font-weight:500;font-stretch:normal;font-size:medium;line-height:25px;font-family:Gotham;-inkscape-font-specification:'Gotham Medium';letter-spacing:0px;word-spacing:0px;fill:#661111;fill-opacity:1;stroke:none;stroke-width:1px;stroke-linecap:butt;stroke-linejoin:miter;stroke-opacity:1"
         d="m 455.0625,219.75 h 9.8 l 3.96,13.44 4.52,-13.52 h 8.08 l 4.52,13.52 3.96,-13.44 h 9.64 l -9.16,28.2 h -8.16 l -4.92,-13.92 -4.92,13.92 h -8.16 z" />
      <path
         id="path5165"
         style="font-style:normal;font-variant:normal;font-weight:500;font-stretch:normal;font-size:medium;line-height:25px;font-family:Gotham;-inkscape-font-specification:'Gotham Medium';letter-spacing:0px;word-spacing:0px;fill:#661111;fill-opacity:1;stroke:none;stroke-width:1px;stroke-linecap:butt;stroke-linejoin:miter;stroke-opacity:1"
         d="m 514.15313,248.35 q -3.24001,0 -6.04,-1.12 -2.76001,-1.12 -4.84001,-3.08 -2.04,-1.96 -3.2,-4.6 -1.16,-2.68 -1.16,-5.72 v -0.08 q 0,-3.04 1.16,-5.68 1.2,-2.68 3.24001,-4.64 2.07999,-2 4.87999,-3.12 2.80001,-1.16 6.04,-1.16 3.24,0 6,1.12 2.80001,1.12 4.84,3.08 2.08001,1.96 3.24001,4.64 1.15999,2.64 1.15999,5.68 v 0.08 q 0,3.04 -1.19999,5.72 -1.16001,2.64 -3.24,4.64 -2.04001,1.96 -4.84001,3.12 -2.79999,1.12 -6.03999,1.12 z m 0.08,-8.28 q 1.32001,0 2.4,-0.52 1.08,-0.52 1.84,-1.36 0.76,-0.88 1.16,-2 0.40001,-1.12 0.40001,-2.36 v -0.08 q 0,-1.24 -0.44001,-2.36 -0.4,-1.16 -1.15999,-2.04 -0.76,-0.88 -1.84001,-1.4 -1.08,-0.52 -2.43999,-0.52 -1.32001,0 -2.40001,0.52 -1.07999,0.52 -1.84,1.4 -0.76,0.84 -1.16,1.96 -0.4,1.12 -0.4,2.36 v 0.08 q 0,1.24 0.4,2.4 0.44,1.12 1.2,2 0.76,0.88 1.84,1.4 1.08,0.52 2.44,0.52 z" />
      <path
         id="path5167"
         style="font-style:normal;font-variant:normal;font-weight:500;font-stretch:normal;font-size:medium;line-height:25px;font-family:Gotham;-inkscape-font-specification:'Gotham Medium';letter-spacing:0px;word-spacing:0px;fill:#661111;fill-opacity:1;stroke:none;stroke-width:1px;stroke-linecap:butt;stroke-linejoin:miter;stroke-opacity:1"
         d="m 532.05313,219.75 h 13.67999 q 3.76,0 6.16001,0.88 2.43999,0.84 3.92,2.32 1.27999,1.28 1.91999,2.88 0.64,1.6 0.64,3.76 v 0.08 q 0,3.08 -1.47999,5.2 -1.48,2.12 -4.04001,3.36 l 6.52,9.52 h -10.68 l -5.27999,-8 h -2 v 8 h -9.36 z m 13.39999,13.32 q 1.68,0 2.64,-0.72 0.96001,-0.72 0.96001,-2 v -0.08 q 0,-1.36 -0.96001,-2 -0.96,-0.68 -2.6,-0.68 h -4.07999 v 5.48 z" />
      <path
         id="path5169"
         style="font-style:normal;font-variant:normal;font-weight:500;font-stretch:normal;font-size:medium;line-height:25px;font-family:Gotham;-inkscape-font-specification:'Gotham Medium';letter-spacing:0px;word-spacing:0px;fill:#661111;fill-opacity:1;stroke:none;stroke-width:1px;stroke-linecap:butt;stroke-linejoin:miter;stroke-opacity:1"
         d="m 560.64688,219.75 h 9.36 v 10.48 l 7.95999,-10.48 h 10.88 l -9.76,12.16 9.96,15.84 h -11.15999 l -5.48,-8.88 -2.4,2.92 v 5.96 h -9.36 z" />
    </g>
  </g>
</svg>
